<svg width="1335" height="1170" viewBox="0 0 1335 1170" fill="none" xmlns="http://www.w3.org/2000/svg">
<path fill-rule="evenodd" clip-rule="evenodd" d="M592.257 715.713C497.229 692.424 364.295 607.593 239.765 483.063C52.1182 295.416 -45.3893 88.6881 21.9762 21.3226C89.3416 -46.0428 296.07 51.4646 483.717 239.112C602.515 357.909 685.184 484.355 712.762 578.244C741.202 578.752 769.208 589.657 790.601 611.05C823.173 643.621 831.431 691.522 815.702 732.948C871.607 751.614 944.109 799.913 1012.28 868.083C1086.11 941.917 1136.64 1020.83 1151.45 1078.24C1183.89 1046.36 1220.51 1031.11 1234.39 1043.71C1257.61 1011.97 1269.17 982.379 1264.09 965.578C1292.82 948.959 1317.31 944.009 1328.33 955.032C1346.7 973.401 1320.71 1029.17 1270.29 1079.59C1243.55 1106.33 1215.3 1126.2 1191.92 1136.23C1160.75 1164.38 1127.39 1176.94 1114.77 1164.33C1113.7 1163.25 1112.8 1162.01 1112.08 1160.65C1055.89 1165.61 955.505 1109.71 863.08 1017.28C790.007 944.209 739.765 866.158 724.381 808.908C688.592 815.311 650.844 805.047 623.724 777.927C606.27 760.473 595.797 738.616 592.257 715.713Z" fill="#2AA52A" fill-opacity="0.83"/>
</svg>
