<svg width="1408" height="1075" viewBox="0 0 1408 1075" fill="none" xmlns="http://www.w3.org/2000/svg">
<path fill-rule="evenodd" clip-rule="evenodd" d="M645.511 405.484C548.816 420.402 408.994 493.324 274.084 606.527C70.7969 777.105 -44.357 974.549 16.8808 1047.53C78.1186 1120.51 292.559 1041.39 495.846 870.812C624.546 762.821 717.921 644.061 753.576 552.933C781.953 554.905 810.803 546.483 833.979 527.036C869.266 497.427 881.667 450.428 869.609 407.789C926.928 394.067 1003.36 352.271 1077.22 290.301C1157.2 223.184 1214.41 148.972 1234.17 93.0756C1263.71 127.655 1298.86 146.04 1313.78 134.705C1334.15 168.339 1343.09 198.829 1336.57 215.124C1363.73 234.183 1387.7 241.249 1399.64 231.229C1419.54 214.531 1398.52 156.713 1352.68 102.088C1328.37 73.1137 1301.96 50.8575 1279.55 38.8366C1250.95 8.07217 1218.8 -7.34549 1205.14 4.11963C1203.97 5.1006 1202.97 6.24909 1202.14 7.55009C1146.59 -2.28831 1041.72 44.6483 941.587 128.666C862.423 195.092 805.571 268.468 785.255 324.159C750.161 314.661 711.662 321.596 682.281 346.25C663.372 362.116 651.035 382.977 645.511 405.484Z" fill="#A5562A" fill-opacity="0.83"/>
</svg>
